<svg width="193" height="27" viewBox="0 0 193 27" fill="none" xmlns="http://www.w3.org/2000/svg">
<path d="M24.16 26H14.8L14.24 19.64H6.84L4 26H0.12L11.92 0.599998H21.4L24.16 26ZM8.16 16.72H13.96L13.04 5.84L8.16 16.72ZM34.7025 26H26.0625L31.4625 0.599998H40.1425L34.7025 26ZM68.4694 26H59.5894L63.2694 8.72L53.7894 26H48.3494L46.5494 8.12L42.7094 26H39.1094L44.5094 0.599998H54.7094L55.9494 14.92L63.6294 0.599998H73.9094L68.4694 26ZM78.2594 0.599998H95.0994L94.4594 3.64H86.2994L84.6194 11.36H91.4594L90.8194 14.36H83.9794L82.1394 22.92H90.2994L89.6994 26H72.8594L78.2594 0.599998ZM114.297 26H104.937L100.497 7.64L96.5766 26H92.9766L98.3766 0.599998H107.937L112.137 19.2L116.097 0.599998H119.777L114.297 26ZM143.079 3.64H136.639L131.879 26H123.239L127.999 3.64H121.639L122.359 0.599998H143.759L143.079 3.64ZM156.643 0.199998C158.936 0.199998 160.79 0.493332 162.203 1.08C163.643 1.66667 164.776 2.57333 165.603 3.8C166.136 4.62667 166.55 5.56 166.843 6.6C167.136 7.64 167.283 8.84 167.283 10.2C167.283 11.3733 167.176 12.5467 166.963 13.72C166.75 14.8933 166.443 16.0267 166.043 17.12C165.67 18.1867 165.203 19.2 164.643 20.16C164.11 21.0933 163.51 21.92 162.843 22.64C161.59 24 160.136 24.96 158.483 25.52C156.856 26.0533 154.843 26.32 152.443 26.32C150.123 26.32 148.256 26.08 146.843 25.6C145.43 25.12 144.31 24.3467 143.483 23.28C142.896 22.5333 142.43 21.5867 142.083 20.44C141.763 19.2933 141.603 17.8533 141.603 16.12C141.603 13.16 142.123 10.52 143.163 8.2C144.23 5.85333 145.736 4 147.683 2.64C148.856 1.81333 150.163 1.2 151.603 0.799998C153.043 0.399998 154.723 0.199998 156.643 0.199998ZM152.123 23.52C152.736 23.52 153.31 23.2533 153.843 22.72C154.403 22.16 154.91 21.4267 155.363 20.52C155.843 19.5867 156.27 18.5333 156.643 17.36C157.043 16.1867 157.376 14.9733 157.643 13.72C157.91 12.4667 158.11 11.2267 158.243 10C158.403 8.74667 158.483 7.61333 158.483 6.6C158.483 5.21333 158.336 4.26667 158.043 3.76C157.776 3.22667 157.376 2.96 156.843 2.96C156.23 2.96 155.643 3.22667 155.083 3.76C154.523 4.29333 153.99 5.01333 153.483 5.92C153.003 6.8 152.563 7.82667 152.163 9C151.79 10.1467 151.456 11.3333 151.163 12.56C150.896 13.7867 150.683 15 150.523 16.2C150.39 17.4 150.323 18.5067 150.323 19.52C150.323 21.04 150.483 22.0933 150.803 22.68C151.15 23.24 151.59 23.52 152.123 23.52ZM192.506 6.64C192.506 8.21333 192.066 9.66667 191.186 11C190.306 12.3333 188.853 13.3467 186.826 14.04L191.466 26H182.546L179.026 14.92H178.586L176.226 26H167.586L172.986 0.599998H183.506C184.733 0.599998 185.893 0.679999 186.986 0.84C188.079 0.973333 189.026 1.26667 189.826 1.72C190.653 2.14667 191.306 2.76 191.786 3.56C192.266 4.33333 192.506 5.36 192.506 6.64ZM180.986 12.36C181.679 12.36 182.266 12.1333 182.746 11.68C183.253 11.2 183.653 10.6267 183.946 9.96C184.266 9.29333 184.493 8.58667 184.626 7.84C184.759 7.06667 184.826 6.4 184.826 5.84C184.826 5.14667 184.706 4.56 184.466 4.08C184.226 3.57333 183.706 3.32 182.906 3.32H181.106L179.106 12.36H180.986Z" fill="black"/>
</svg>
